<svg width="21" height="27" viewBox="0 0 21 27" fill="none" xmlns="http://www.w3.org/2000/svg">
<path fill-rule="evenodd" clip-rule="evenodd" d="M10.6704 13C12.3791 13 13.7276 11.6777 13.7276 10.0909C13.7276 8.50409 12.3791 7.18182 10.6704 7.18182C8.9617 7.18182 7.6132 8.50409 7.6132 10.0909C7.6132 11.6777 8.9617 13 10.6704 13ZM15.9133 10.0909C15.9133 12.8973 13.5457 15.1364 10.6704 15.1364C7.79506 15.1364 5.42747 12.8973 5.42747 10.0909C5.42747 7.28455 7.79506 5.04545 10.6704 5.04545C13.5457 5.04545 15.9133 7.28455 15.9133 10.0909ZM3.74025 13.8102L9.90149 24.0374C10.1635 24.4724 10.8367 24.4724 11.0987 24.0374L17.2599 13.8102C20.2345 8.87253 16.5386 2.63636 10.5001 2.63636C4.46157 2.63636 0.765655 8.87252 3.74025 13.8102ZM12.9821 25.1216C11.875 26.9594 9.1252 26.9594 8.01805 25.1216L1.8568 14.8944C-2.01442 8.46838 2.84694 0.500001 10.5001 0.5C18.1532 0.499999 23.0146 8.46839 19.1433 14.8944L12.9821 25.1216ZM9.47321 24.2955L3.31196 14.0682C0.117247 8.76515 4.11064 2.13636 10.5001 2.13636C16.8895 2.13636 20.8829 8.76515 17.6882 14.0682L11.527 24.2955C11.0706 25.053 9.92959 25.053 9.47321 24.2955ZM12.5538 24.8636C11.641 26.3788 9.35911 26.3788 8.44633 24.8636L2.28509 14.6364C-1.36602 8.57575 3.19787 1 10.5001 1C17.8023 1 22.3662 8.57576 18.7151 14.6364L12.5538 24.8636ZM14.2276 10.0909C14.2276 11.9737 12.635 13.5 10.6704 13.5C8.70581 13.5 7.1132 11.9737 7.1132 10.0909C7.1132 8.20812 8.70581 6.68182 10.6704 6.68182C12.635 6.68182 14.2276 8.20812 14.2276 10.0909ZM15.4133 10.0909C15.4133 12.6013 13.2898 14.6364 10.6704 14.6364C8.05095 14.6364 5.92747 12.6013 5.92747 10.0909C5.92747 7.58052 8.05095 5.54545 10.6704 5.54545C13.2898 5.54545 15.4133 7.58052 15.4133 10.0909Z" fill="#0F95CE"/>
</svg>