<svg width="16" height="15" viewBox="0 0 16 15" fill="none" xmlns="http://www.w3.org/2000/svg">
<path d="M3.14844 14.4297H13.3047C14.0599 14.4297 14.625 14.2422 15 13.8672C15.3802 13.4922 15.5703 12.9349 15.5703 12.1953V3.16406C15.5703 2.42448 15.3802 1.86719 15 1.49219C14.625 1.11719 14.0599 0.929688 13.3047 0.929688H3.14844C2.39323 0.929688 1.82552 1.11719 1.44531 1.49219C1.07031 1.86198 0.882812 2.41927 0.882812 3.16406V12.1953C0.882812 12.9401 1.07031 13.4974 1.44531 13.8672C1.82552 14.2422 2.39323 14.4297 3.14844 14.4297ZM3.05469 13.3516C2.70052 13.3516 2.42969 13.2578 2.24219 13.0703C2.0599 12.888 1.96875 12.6146 1.96875 12.25V5.375C1.96875 5.00521 2.0599 4.72917 2.24219 4.54688C2.42969 4.35938 2.70052 4.26562 3.05469 4.26562H13.3906C13.7396 4.26562 14.0104 4.35938 14.2031 4.54688C14.3958 4.72917 14.4922 5.00521 14.4922 5.375V12.25C14.4922 12.6146 14.3958 12.888 14.2031 13.0703C14.0104 13.2578 13.7396 13.3516 13.3906 13.3516H3.05469ZM6.78125 6.91406H7.21094C7.33594 6.91406 7.41927 6.89323 7.46094 6.85156C7.50781 6.80469 7.53125 6.71875 7.53125 6.59375V6.16406C7.53125 6.03906 7.50781 5.95573 7.46094 5.91406C7.41927 5.8724 7.33594 5.85156 7.21094 5.85156H6.78125C6.65625 5.85156 6.56771 5.8724 6.51562 5.91406C6.46875 5.95573 6.44531 6.03906 6.44531 6.16406V6.59375C6.44531 6.71875 6.46875 6.80469 6.51562 6.85156C6.56771 6.89323 6.65625 6.91406 6.78125 6.91406ZM9.25 6.91406H9.6875C9.8125 6.91406 9.89583 6.89323 9.9375 6.85156C9.98438 6.80469 10.0078 6.71875 10.0078 6.59375V6.16406C10.0078 6.03906 9.98438 5.95573 9.9375 5.91406C9.89583 5.8724 9.8125 5.85156 9.6875 5.85156H9.25C9.125 5.85156 9.03906 5.8724 8.99219 5.91406C8.95052 5.95573 8.92969 6.03906 8.92969 6.16406V6.59375C8.92969 6.71875 8.95052 6.80469 8.99219 6.85156C9.03906 6.89323 9.125 6.91406 9.25 6.91406ZM11.7188 6.91406H12.1562C12.2812 6.91406 12.3672 6.89323 12.4141 6.85156C12.4609 6.80469 12.4844 6.71875 12.4844 6.59375V6.16406C12.4844 6.03906 12.4609 5.95573 12.4141 5.91406C12.3672 5.8724 12.2812 5.85156 12.1562 5.85156H11.7188C11.599 5.85156 11.5156 5.8724 11.4688 5.91406C11.4219 5.95573 11.3984 6.03906 11.3984 6.16406V6.59375C11.3984 6.71875 11.4219 6.80469 11.4688 6.85156C11.5156 6.89323 11.599 6.91406 11.7188 6.91406ZM4.29688 9.35156H4.73438C4.85938 9.35156 4.94531 9.32812 4.99219 9.28125C5.03906 9.23438 5.0625 9.15104 5.0625 9.03125V8.59375C5.0625 8.47396 5.03906 8.39323 4.99219 8.35156C4.94531 8.30469 4.85938 8.28125 4.73438 8.28125H4.29688C4.17708 8.28125 4.09375 8.30469 4.04688 8.35156C4 8.39323 3.97656 8.47396 3.97656 8.59375V9.03125C3.97656 9.15104 4 9.23438 4.04688 9.28125C4.09375 9.32812 4.17708 9.35156 4.29688 9.35156ZM6.78125 9.35156H7.21094C7.33594 9.35156 7.41927 9.32812 7.46094 9.28125C7.50781 9.23438 7.53125 9.15104 7.53125 9.03125V8.59375C7.53125 8.47396 7.50781 8.39323 7.46094 8.35156C7.41927 8.30469 7.33594 8.28125 7.21094 8.28125H6.78125C6.65625 8.28125 6.56771 8.30469 6.51562 8.35156C6.46875 8.39323 6.44531 8.47396 6.44531 8.59375V9.03125C6.44531 9.15104 6.46875 9.23438 6.51562 9.28125C6.56771 9.32812 6.65625 9.35156 6.78125 9.35156ZM9.25 9.35156H9.6875C9.8125 9.35156 9.89583 9.32812 9.9375 9.28125C9.98438 9.23438 10.0078 9.15104 10.0078 9.03125V8.59375C10.0078 8.47396 9.98438 8.39323 9.9375 8.35156C9.89583 8.30469 9.8125 8.28125 9.6875 8.28125H9.25C9.125 8.28125 9.03906 8.30469 8.99219 8.35156C8.95052 8.39323 8.92969 8.47396 8.92969 8.59375V9.03125C8.92969 9.15104 8.95052 9.23438 8.99219 9.28125C9.03906 9.32812 9.125 9.35156 9.25 9.35156ZM11.7188 9.35156H12.1562C12.2812 9.35156 12.3672 9.32812 12.4141 9.28125C12.4609 9.23438 12.4844 9.15104 12.4844 9.03125V8.59375C12.4844 8.47396 12.4609 8.39323 12.4141 8.35156C12.3672 8.30469 12.2812 8.28125 12.1562 8.28125H11.7188C11.599 8.28125 11.5156 8.30469 11.4688 8.35156C11.4219 8.39323 11.3984 8.47396 11.3984 8.59375V9.03125C11.3984 9.15104 11.4219 9.23438 11.4688 9.28125C11.5156 9.32812 11.599 9.35156 11.7188 9.35156ZM4.29688 11.7812H4.73438C4.85938 11.7812 4.94531 11.7604 4.99219 11.7188C5.03906 11.6771 5.0625 11.5938 5.0625 11.4688V11.0391C5.0625 10.9141 5.03906 10.8307 4.99219 10.7891C4.94531 10.7422 4.85938 10.7188 4.73438 10.7188H4.29688C4.17708 10.7188 4.09375 10.7422 4.04688 10.7891C4 10.8307 3.97656 10.9141 3.97656 11.0391V11.4688C3.97656 11.5938 4 11.6771 4.04688 11.7188C4.09375 11.7604 4.17708 11.7812 4.29688 11.7812ZM6.78125 11.7812H7.21094C7.33594 11.7812 7.41927 11.7604 7.46094 11.7188C7.50781 11.6771 7.53125 11.5938 7.53125 11.4688V11.0391C7.53125 10.9141 7.50781 10.8307 7.46094 10.7891C7.41927 10.7422 7.33594 10.7188 7.21094 10.7188H6.78125C6.65625 10.7188 6.56771 10.7422 6.51562 10.7891C6.46875 10.8307 6.44531 10.9141 6.44531 11.0391V11.4688C6.44531 11.5938 6.46875 11.6771 6.51562 11.7188C6.56771 11.7604 6.65625 11.7812 6.78125 11.7812ZM9.25 11.7812H9.6875C9.8125 11.7812 9.89583 11.7604 9.9375 11.7188C9.98438 11.6771 10.0078 11.5938 10.0078 11.4688V11.0391C10.0078 10.9141 9.98438 10.8307 9.9375 10.7891C9.89583 10.7422 9.8125 10.7188 9.6875 10.7188H9.25C9.125 10.7188 9.03906 10.7422 8.99219 10.7891C8.95052 10.8307 8.92969 10.9141 8.92969 11.0391V11.4688C8.92969 11.5938 8.95052 11.6771 8.99219 11.7188C9.03906 11.7604 9.125 11.7812 9.25 11.7812Z" fill="#0F95CE"/>
</svg>
